<svg width="29" height="29" viewBox="0 0 29 29" fill="none" xmlns="http://www.w3.org/2000/svg">
<g id="Frame">
<path id="Vector" d="M5.90186 10.4219L11.1471 4.07812" stroke="white" stroke-width="1.5" stroke-linecap="round" stroke-linejoin="round"/>
<path id="Vector_2" d="M23.3859 10.4219L18.1406 4.07812" stroke="white" stroke-width="1.5" stroke-linecap="round" stroke-linejoin="round"/>
<path id="Vector_3" d="M22.7284 24.9219H6.55905C6.18048 24.9147 5.81531 24.7753 5.52273 24.5261C5.23015 24.277 5.02729 23.9327 4.947 23.5492L2.45492 12.6742C2.3882 12.4138 2.37897 12.1411 2.4279 11.8764C2.47683 11.6117 2.58268 11.3619 2.73758 11.1455C2.89247 10.9291 3.09243 10.7516 3.32258 10.6264C3.55273 10.5011 3.80716 10.4312 4.06696 10.4219H25.2205C25.4803 10.4312 25.7348 10.5011 25.9649 10.6264C26.1951 10.7516 26.395 10.9291 26.5499 11.1455C26.7048 11.3619 26.8107 11.6117 26.8596 11.8764C26.9086 12.1411 26.8993 12.4138 26.8326 12.6742L24.3405 23.5492C24.2602 23.9327 24.0574 24.277 23.7648 24.5261C23.4722 24.7753 23.107 24.9147 22.7284 24.9219Z" stroke="white" stroke-width="1.5" stroke-linecap="round" stroke-linejoin="round"/>
<path id="Vector_4" d="M9.39868 14.0469V21.2969" stroke="white" stroke-width="1.5" stroke-linecap="round" stroke-linejoin="round"/>
<path id="Vector_5" d="M14.6438 14.0469V21.2969" stroke="white" stroke-width="1.5" stroke-linecap="round" stroke-linejoin="round"/>
<path id="Vector_6" d="M19.8892 14.0469V21.2969" stroke="white" stroke-width="1.5" stroke-linecap="round" stroke-linejoin="round"/>
</g>
</svg>
