<svg width="267" height="267" viewBox="0 0 267 267" fill="none" xmlns="http://www.w3.org/2000/svg">
<path d="M50.0625 95.9531L100.125 37.5469" stroke="black" stroke-width="10" stroke-linecap="round" stroke-linejoin="round"/>
<path d="M216.938 95.9531L166.875 37.5469" stroke="black" stroke-width="10" stroke-linecap="round" stroke-linejoin="round"/>
<path d="M210.663 229.453H56.3374C52.7243 229.387 49.239 228.104 46.4465 225.81C43.6541 223.516 41.7179 220.346 40.9516 216.815L17.1663 116.69C16.5295 114.293 16.4414 111.782 16.9084 109.345C17.3755 106.908 18.3857 104.608 19.8641 102.615C21.3424 100.623 23.2509 98.9893 25.4475 97.8358C27.6442 96.6824 30.0725 96.0389 32.5522 95.9531H234.449C236.928 96.0389 239.357 96.6824 241.553 97.8358C243.75 98.9893 245.658 100.623 247.137 102.615C248.615 104.608 249.625 106.908 250.093 109.345C250.56 111.782 250.471 114.293 249.835 116.69L226.049 216.815C225.283 220.346 223.347 223.516 220.555 225.81C217.762 228.104 214.277 229.387 210.663 229.453Z" stroke="black" stroke-width="10" stroke-linecap="round" stroke-linejoin="round"/>
<path d="M83.4375 129.328V196.078" stroke="black" stroke-width="10" stroke-linecap="round" stroke-linejoin="round"/>
<path d="M133.5 129.328V196.078" stroke="black" stroke-width="10" stroke-linecap="round" stroke-linejoin="round"/>
<path d="M183.562 129.328V196.078" stroke="black" stroke-width="10" stroke-linecap="round" stroke-linejoin="round"/>
</svg>
