<svg width="50" height="50" viewBox="0 0 50 50" fill="none" xmlns="http://www.w3.org/2000/svg">
<g id="Facebook" clip-path="url(#clip0_138_76)">
<path id="Vector" d="M49.9999 25.1533C49.9999 11.2596 38.8062 -0.00292969 24.9999 -0.00292969C11.1874 0.000195313 -0.00634766 11.2596 -0.00634766 25.1564C-0.00634766 37.7096 9.1374 48.1158 21.0874 50.0033V32.4252H14.7437V25.1564H21.0937V19.6096C21.0937 13.3064 24.828 9.8252 30.5374 9.8252C33.2749 9.8252 36.1343 10.3158 36.1343 10.3158V16.5033H32.9812C29.878 16.5033 28.9093 18.4439 28.9093 20.4346V25.1533H35.8405L34.7343 32.4221H28.9062V50.0002C40.8562 48.1127 49.9999 37.7064 49.9999 25.1533Z" fill="black"/>
</g>
<defs>
<clipPath id="clip0_138_76">
<rect width="50" height="50" fill="white"/>
</clipPath>
</defs>
</svg>
