<svg width="50" height="50" viewBox="0 0 50 50" fill="none" xmlns="http://www.w3.org/2000/svg">
<g id="Whatsapp" clip-path="url(#clip0_138_66)">
<path id="Vector" d="M42.5031 7.26892C40.2113 4.95485 37.4816 3.12032 34.4732 1.87234C31.4649 0.624366 28.2381 -0.0120651 24.9813 0.000173203C11.3344 0.000173203 0.2125 11.1189 0.2 24.7689C0.2 29.1408 1.34375 33.3939 3.50313 37.1595L0 50.0002L13.1375 46.5564C16.7703 48.5384 20.843 49.5754 24.9813 49.572H24.9937C38.6437 49.572 49.7625 38.4533 49.775 24.7908C49.7778 21.5347 49.1364 18.3103 47.8879 15.3031C46.6393 12.296 44.8113 9.56548 42.5031 7.26892ZM24.9813 45.3783C21.2912 45.3754 17.6695 44.3825 14.4937 42.5033L13.7437 42.0533L5.95 44.097L8.03125 36.4939L7.54375 35.7095C5.48065 32.4293 4.38952 28.6315 4.39687 24.7564C4.39687 13.4252 13.6375 4.18142 24.9937 4.18142C27.6992 4.17657 30.3788 4.70728 32.8782 5.74296C35.3775 6.77864 37.6472 8.2988 39.5563 10.2158C41.4716 12.1256 42.99 14.3956 44.024 16.8949C45.0581 19.3943 45.5873 22.0735 45.5813 24.7783C45.5688 36.1502 36.3281 45.3783 24.9813 45.3783ZM36.2781 29.9595C35.6625 29.6502 32.6219 28.1533 32.05 27.9408C31.4812 27.7377 31.0656 27.6314 30.6594 28.2502C30.2437 28.8658 29.0562 30.2689 28.7 30.672C28.3438 31.0877 27.975 31.1345 27.3562 30.8283C26.7406 30.5158 24.7437 29.8658 22.3813 27.7502C20.5375 26.1095 19.3031 24.0783 18.9344 23.4627C18.5781 22.8439 18.9 22.5127 19.2094 22.2033C19.4812 21.9283 19.825 21.4783 20.1344 21.122C20.4469 20.7658 20.55 20.5033 20.7531 20.0908C20.9562 19.672 20.8594 19.3158 20.7062 19.0064C20.55 18.697 19.3156 15.6439 18.7938 14.4127C18.2938 13.197 17.7844 13.3658 17.4031 13.3502C17.0469 13.3283 16.6313 13.3283 16.2156 13.3283C15.9018 13.3363 15.593 13.409 15.3085 13.5418C15.0241 13.6746 14.7701 13.8647 14.5625 14.1002C13.9937 14.7189 12.4031 16.2158 12.4031 19.2689C12.4031 22.322 14.6219 25.2564 14.9344 25.672C15.2406 26.0877 19.2906 32.3345 25.5062 35.022C26.975 35.6627 28.1313 36.0408 29.0344 36.3283C30.5188 36.8033 31.8594 36.7314 32.9281 36.5783C34.1156 36.397 36.5875 35.0783 37.1094 33.6314C37.6219 32.1814 37.6219 30.9439 37.4656 30.6845C37.3125 30.422 36.8969 30.2689 36.2781 29.9595Z" fill="black"/>
</g>
<defs>
<clipPath id="clip0_138_66">
<rect width="50" height="50" fill="white"/>
</clipPath>
</defs>
</svg>
